<svg width="606" height="486" viewBox="0 0 606 486" fill="none" xmlns="http://www.w3.org/2000/svg">
<path fill-rule="evenodd" clip-rule="evenodd" d="M349.089 485.782C421.518 485.782 485.079 431.906 449.383 358.727C413.687 285.549 546.319 287.913 585.28 237.336C632.794 175.657 619.034 -86.1635 314.013 73.455C265.153 99.024 139.668 47.15 98.044 72.889C49.048 103.186 -19.8856 165.225 49.048 228.774C83.004 260.077 -38.7346 341.326 14.5844 414.104C66.61 485.117 103.08 417.421 182.288 431.906C261.497 446.39 295.297 485.782 349.089 485.782Z" fill="#FD4D05"/>
<path d="M265.021 358.474C265.021 358.474 281.698 350.629 287.924 345.171C294.15 339.713 301.891 326.154 301.891 326.154C301.891 326.154 386.914 387.557 442.352 378.798C455.125 376.78 480.014 368.29 481.601 353.33C485.935 312.481 425.971 302.043 439.069 281.328C447.065 268.683 471.902 287.502 471.902 287.502L574.92 338.174C574.92 338.174 539.33 425.904 452.962 429.419C346.718 433.744 265.021 358.474 265.021 358.474Z" fill="white"/>
<path fill-rule="evenodd" clip-rule="evenodd" d="M183.345 14.906C182.378 14.526 177.185 8.16801 170.593 7.01101C167.598 6.48501 170.316 10.299 167.02 10.334C157.201 10.436 141.244 8.591 138.288 10.334C136.091 11.625 140.929 16.134 138.288 16.341C113.366 18.295 75.3459 43.178 67.0979 55.25C64.4719 59.092 85.7039 52.574 82.3209 54.473C78.5239 56.605 74.3129 70.564 71.7959 81.344C70.0529 88.768 68.9549 98.322 68.5679 108.716C68.2449 117.689 68.3739 119.174 69.6649 124.08C71.1499 129.567 72.3119 131.181 74.3129 130.406C75.0239 130.148 75.3459 129.18 75.3459 127.372C75.3459 125.952 76.1209 121.691 77.0889 117.882L78.7679 111.04L79.4779 113.88C80.3819 117.172 85.6749 127.372 90.4519 134.796C90.7099 135.19 91.8179 134.689 92.8179 132.273C93.7289 130.071 93.3589 126.554 94.9069 122.784C98.4309 114.197 105.352 103.033 113.366 94.096C125.21 80.889 129.139 65.603 140.241 53.333C160.961 30.435 186.964 16.327 183.345 14.906Z" fill="white"/>
<path fill-rule="evenodd" clip-rule="evenodd" d="M82.6159 57.588C79.2919 60.261 74.3579 81.939 74.2739 82.301C72.5309 89.725 70.8509 115.505 72.5679 120.386C74.2859 125.267 79.0939 107.673 79.0939 107.673C79.0939 107.673 86.3629 126.547 92.7859 131.722C93.0599 131.943 85.1519 108.37 82.6159 94.609C79.2679 76.444 84.5069 56.067 82.6159 57.588Z" fill="#E7EAEE"/>
<path fill-rule="evenodd" clip-rule="evenodd" d="M206.496 437.252C212.693 435.896 223.15 431.175 227.154 429.561C231.157 427.946 243.357 410.72 247.747 391.288C250.91 376.957 252.524 356.558 250.716 353.136C250.449 352.651 249.473 343.375 252.072 346.404C257.85 353.136 264.709 363.706 286.35 344.766C292.245 339.607 300.057 332.95 298 327.064C292.245 310.596 267.295 277.436 263.492 274.924C258.944 271.92 235.959 274.473 201.752 264.376C162.958 252.926 146.805 219.21 131.624 223.599C119.347 227.148 89.9319 248.96 82.5499 262.773C47.6979 327.985 89.9319 373.679 99.5499 386.803L108.889 390.837L109.212 399.164L109.663 404.393C110.503 414.399 110.825 415.303 115.344 418.66C126.641 427.246 148.913 435.25 169.054 438.091C178.415 439.382 198.75 438.93 206.496 437.252Z" fill="white"/>
<path fill-rule="evenodd" clip-rule="evenodd" d="M112.561 396.116L113.013 401.344C113.853 411.351 114.175 412.254 118.694 415.611C125.359 420.676 135.843 425.539 147.455 429.259C155.527 431.844 164.145 433.877 172.404 435.042C181.765 436.333 202.099 435.881 209.846 434.203C213.675 433.373 182.179 408.629 163.624 415.611C149.375 420.973 115.791 380.074 129.446 369.389C144.764 357.402 116.695 310.126 115.791 299.862C114.887 289.598 111.328 287.146 111.224 287.506C111.12 287.866 111.12 289.094 111.399 292.053C112.604 304.806 112.561 396.116 112.561 396.116Z" fill="#E7EAEE"/>
<path fill-rule="evenodd" clip-rule="evenodd" d="M109.199 296.933C110.554 296.669 111.866 297.554 112.13 298.91C117.002 323.94 137.611 340.886 174.462 349.748C211.533 358.662 236.784 358.181 250.088 348.666C251.211 347.863 250.374 354.741 249.551 355.269C240.874 360.833 211.371 369.136 176.163 361.632C131.146 352.037 110.009 314.184 107.222 299.865C106.959 298.51 107.843 297.197 109.199 296.933Z" fill="#FD4D05"/>
<path fill-rule="evenodd" clip-rule="evenodd" d="M90.4261 251.769C91.6251 251.083 136.336 302.326 197.696 313.925C259.056 325.524 273.912 318.148 276.3 302.326C276.506 300.961 277.78 300.021 279.145 300.227C280.511 300.433 281.45 301.707 281.244 303.072C278.218 323.124 249.825 327.893 196.855 318.854C144.55 309.929 108.69 288.723 89.4981 255.18C88.8121 253.982 89.2281 252.454 90.4261 251.769Z" fill="#FD4D05"/>
<path fill-rule="evenodd" clip-rule="evenodd" d="M347.963 248.929C346.284 248.348 344.477 247.057 343.315 245.572L341.378 243.183L348.221 236.405C358.744 226.076 366.813 215.489 373.785 202.901C376.109 198.705 381.983 184.696 381.983 183.341C381.983 182.889 382.694 181.081 383.533 179.209C384.824 176.498 385.792 175.465 388.568 173.916C391.86 171.979 395.605 171.334 397.218 172.431C400.317 174.497 400.317 181.017 397.218 192.249C393.797 204.579 389.214 213.423 379.724 226.141C378.239 228.077 375.463 231.886 373.462 234.533C368.104 241.634 364.618 245.055 359.906 247.702C355.258 250.284 352.546 250.607 347.963 248.929ZM394.313 243.119L398.961 245.185C399.925 245.629 410.558 250.738 423.329 256.875C443.92 266.769 470.071 279.334 470.23 279.334C470.489 279.334 471.7 276.533 471.973 273.266C472.619 266.23 475.007 256.675 477.783 250.026C479.074 247.057 480.107 243.345 480.107 243.023C480.107 242.875 479.058 242.452 477.34 241.759C475.294 240.934 472.302 239.727 469.004 238.148C452.736 230.337 420.91 214.392 416.972 212.003C413.099 209.744 412.324 209.55 412.324 211.035C412.324 212.972 408.386 221.945 405.352 226.786C403.739 229.433 400.575 234.21 398.316 237.373L394.313 243.119ZM469.133 267.714C470.984 268.787 467.777 270.361 467.003 270.619C462.441 271.007 457.071 270.149 452.671 267.585C450.371 265.954 432.256 255.89 420.24 249.214C414.747 246.163 410.528 243.819 409.678 243.313C406.966 241.699 404.384 239.956 403.932 239.439C402.577 237.696 403.868 236.922 407.676 237.244C409.966 237.438 465.134 265.397 469.133 267.714ZM206.716 436.72C211.696 435.63 219.426 432.368 224.348 430.291C225.552 429.783 226.587 429.346 227.374 429.029C231.378 427.414 243.577 410.188 247.967 390.756C251.13 376.425 252.744 356.026 250.937 352.604C249.847 350.623 256.321 357.27 261.143 362.22C262.605 363.721 263.915 365.066 264.816 365.967C292.962 393.92 334.858 416.385 378.368 426.907C400.059 432.201 415.488 434.073 436.21 434.073C471.005 434.073 498.441 427.23 523.359 412.189C524.543 411.474 525.652 410.818 526.709 410.192C535.395 405.049 540.57 401.985 554.733 386.044C570.619 368.162 584.751 326.653 589.464 312.322C591.529 305.866 596.565 280.19 596.565 273.783C596.565 266.197 593.918 262.615 590.303 258.935C583.912 252.673 575.261 250.414 568.096 253.125L564.739 254.416L563.706 250.995C562.221 245.83 559.123 241.699 554.346 238.6C547.245 233.887 546.212 233.565 539.821 233.565C534.85 233.565 533.494 233.823 530.331 235.308L526.651 236.986L525.877 234.662C524.392 229.885 519.412 223.226 515.548 221.299C512.121 219.591 506.189 219.434 502.056 220.202C493.018 221.88 486.563 226.076 483.916 231.951C483.141 233.758 482.173 235.179 481.786 235.179C481.463 235.179 468.746 231.627 453.575 224.913C451.016 223.777 448.612 222.711 446.355 221.711C419.113 209.636 413.208 207.019 413.745 203.74C414.196 200.964 414.067 199.415 413.293 197.026C411.937 193.024 410.388 191.927 405.998 191.927C402.512 191.927 402.512 191.927 402.899 190.184C404.965 180.307 404.901 174.626 402.706 171.011C401.221 168.622 399.478 167.654 395.475 167.073C393.151 166.75 392.054 166.944 389.472 168.364C387.729 169.268 386.244 169.913 386.115 169.784C385.986 169.655 386.438 166.105 387.148 161.908C392.441 130.857 388.352 104.104 374.86 75.7C374.731 75.428 374.581 75.107 374.41 74.739C370.308 65.933 353.815 30.524 306.648 12.657C304.513 11.848 302.493 11.066 300.551 10.315C284.484 4.096 273.803 -0.0390057 248.032 0.00399431C219.146 0.0519943 209.363 4.13599 190.319 12.851C187.673 14.077 185.349 14.787 185.155 14.529C184.961 14.206 183.735 13.432 182.508 12.786C181.282 12.141 178.635 10.527 176.698 9.23599C171.146 5.49099 167.725 3.94199 165.982 4.32899C163.981 4.84599 163.981 6.52399 165.982 7.29899C166.821 7.62199 167.79 8.719 168.177 9.817C169.016 12.141 169.984 12.399 170.565 10.462C170.824 9.752 171.211 9.236 171.405 9.365C171.478 9.401 171.724 9.517 172.099 9.692C173.043 10.134 174.804 10.959 176.698 11.882C179.345 13.173 182.25 14.529 183.025 14.852C184.445 15.368 183.993 15.756 177.86 19.371C153.91 33.444 134.415 55.328 123.505 80.246C121.826 83.99 120.342 86.314 118.792 87.606C114.854 90.898 107.108 100.258 105.3 103.938C104.332 105.939 102.266 109.038 100.652 110.845C99.1031 112.653 97.4241 114.977 96.8431 115.945C96.3271 116.978 95.8111 117.688 95.6171 117.559C95.4881 117.365 95.6811 114.202 96.1331 110.523C97.1021 101.937 97.1021 99.677 96.3271 99.484C95.1651 99.161 93.4871 103.68 92.7761 109.296C92.2601 112.717 92.1311 117.882 92.4541 123.175L92.8411 131.568L88.2581 124.144C86.6821 121.661 85.1301 119.179 84.0271 117.416V117.415L84.0261 117.414L84.0241 117.41L84.0221 117.408V117.407L84.0211 117.406L84.0191 117.403C83.3201 116.284 82.8021 115.457 82.5771 115.106C80.8981 112.653 79.9301 108.973 80.6401 107.747C81.0271 107.037 80.9631 106.714 80.3171 106.714C78.9621 106.714 76.3151 111.039 74.5721 116.01C73.7331 118.334 72.8931 120.27 72.6351 120.27C71.6671 120.27 72.1191 97.16 73.1521 89.736C75.2821 75.082 80.8981 57.006 83.4161 57.006C83.9321 57.006 84.3841 56.748 84.3841 56.361C84.3841 55.199 82.7061 55.651 81.3501 57.136C78.3161 60.428 74.3141 70.563 71.7961 81.344C70.0531 88.768 68.9561 98.322 68.5681 108.715C68.2461 117.688 68.3751 119.173 69.6661 124.079C71.1511 129.566 72.3131 131.18 74.3141 130.406C75.0241 130.147 75.3471 129.179 75.3471 127.371C75.3471 125.951 76.1211 121.691 77.0901 117.882L78.7681 111.039L79.4781 113.879C80.3821 117.172 85.6751 127.372 90.4521 134.795C93.7451 139.831 93.8091 140.153 94.9071 148.029C95.4881 152.483 97.2951 163.318 101.491 179.984C105.199 194.71 126.041 209.317 131.246 212.965L131.249 212.967C131.933 213.446 132.346 213.736 132.413 213.811C133.059 214.521 133.963 214.908 134.479 214.715C135.06 214.521 135.383 214.779 135.383 215.489C135.383 216.135 135.835 216.974 136.351 217.361C136.997 217.813 137.449 219.556 137.578 222.59C137.901 228.658 142.419 240.278 145.905 244.087C148.165 246.54 152.877 247.573 158.106 246.669C161.528 246.153 162.496 245.766 162.173 244.991C161.98 244.475 163.206 245.12 164.885 246.411C184.509 261.388 204.392 270.361 226.728 274.234C235.379 275.719 249.71 276.558 257.521 275.977C264.429 275.526 264.429 275.526 264.106 276.881C263.654 278.689 264.235 279.786 273.724 295.86C281.277 308.578 281.923 309.417 290.315 318.003C308.132 336.401 327.563 350.668 349.577 361.707C370.299 372.035 403.383 380.621 433.628 383.333C463.872 386.044 485.594 358.285 485.53 351.184C485.401 341.436 484.045 335.045 480.753 328.848C477.525 322.844 475.395 320.779 465.711 314.323C454.931 307.158 448.282 301.283 443.892 295.021C441.116 291.083 440.083 286.629 440.083 284.24C440.083 282.691 442.084 279.205 445.054 278.495C447.765 277.785 448.282 277.849 451.316 279.334C453.123 280.173 457.836 282.368 461.709 284.24C465.647 286.048 469.456 287.856 470.23 288.243C472.514 288.877 473.48 293.348 474.003 295.771C474.12 296.312 474.215 296.751 474.297 297.022C475.201 300.379 479.478 304.714 482.238 306.189C487.083 308.781 499.023 309.127 502.315 305.577C503.155 304.673 505.937 303.561 506.51 303.898C507.084 304.235 509.157 307.028 509.157 309.288C509.222 313.161 511.223 316.712 515.483 320.262C523.553 326.976 529.815 328.59 536.141 325.62C539.433 324.071 542.132 323.466 542.132 323.466C542.132 323.466 544.823 326.9 544.985 328.073C546.253 337.245 559.832 341.09 563.448 341.478C564.276 341.561 565.889 341.206 567.526 340.846C569.716 340.365 571.951 339.873 572.421 340.403C573.343 341.444 556.992 368.485 554.733 371.906C533.236 404.184 491.404 423.938 440.212 426.004C406.966 427.359 366.103 418.063 330.662 401.15C308.003 390.24 287.927 376.877 266.43 358.156C262.686 354.928 258.36 351.249 256.811 349.958C255.262 348.731 251.582 344.535 248.742 340.662C243.965 334.206 241.253 331.882 241.253 334.077C241.253 335.045 244.352 340.984 247.902 346.859C249.323 349.183 250.226 350.797 249.904 350.539C249.581 350.28 248.548 354.928 247.58 360.867C244.416 379.911 239.187 398.697 233.894 410.381C230.989 416.708 225.419 421.432 223.74 422.723C217.543 427.436 208.266 429.554 195.419 430.845C179.151 432.459 155.201 428.844 136.932 422.001C132.091 420.194 119.631 414.965 118.792 414.384C118.742 414.333 118.456 412.476 118.057 409.884C117.944 409.153 117.823 408.364 117.695 407.541C115.371 391.596 112.143 330.204 112.143 301.799C112.143 290.05 112.014 287.468 111.239 287.468C109.625 287.468 108.98 289.018 108.27 294.569C106.656 307.222 106.979 373.262 108.722 387.141L109.109 390.305L106.914 389.078C103.557 387.141 90.7751 374.166 86.3211 368.162C82.5501 363.029 80.3091 356.456 78.6321 351.538C78.2421 350.394 77.8831 349.34 77.5411 348.414C68.1811 322.463 71.4731 293.343 84.3841 267.133C95.3591 244.797 108.851 232.403 128.605 226.399C131.832 225.431 134.673 224.398 134.996 224.14C136.222 222.978 128.346 223.559 124.021 224.914C109.948 229.239 95.2301 241.053 85.2241 256.159C71.1511 277.333 64.8241 308.578 69.2781 335.239C70.3111 341.565 74.5071 355.251 75.6691 356.219C75.7721 356.322 76.3031 357.436 77.1061 359.121C79.3271 363.779 83.6271 372.8 86.7081 376.877C90.4521 381.977 101.75 393.08 106.462 396.502L109.432 398.632L109.884 403.861C110.723 413.867 111.046 414.771 115.564 418.128C126.862 426.714 149.133 434.718 169.274 437.559C178.635 438.85 198.97 438.398 206.716 436.72ZM424.913 376.102C387.406 372.81 342.088 354.927 309.294 327.298C295.48 315.613 277.533 292.891 270.432 280.303C268.947 277.72 267.85 276.494 266.559 276.171C265.203 275.784 266.365 275.396 271.917 274.493C295.35 270.49 318.138 260.742 336.537 246.863L339.248 244.862L340.023 246.734C341.766 250.93 348.479 255.191 353.45 255.191C355.451 255.191 362.165 252.157 366.232 249.381L369.008 247.509L371.267 249.768C373.333 251.834 373.72 251.963 377.594 251.963C382.048 251.963 387.406 249.962 390.376 247.121L391.989 245.636L396.573 248.671C399.026 250.414 405.869 254.222 411.743 257.256C420.523 261.775 429.819 267.004 438.663 272.427L440.083 273.331L438.727 275.138C437.307 277.075 434.662 280.754 434.662 286.371C434.662 292.697 441.24 304.064 453.833 311.87C463.727 318.003 480.753 330.066 480.107 347.698C480.029 349.828 477.654 355.122 474.491 359.899C472.425 362.933 466.68 367.452 461.451 370.099C452.542 374.553 436.855 377.135 424.913 376.102ZM80.7051 86.314C82.4481 86.702 83.6101 87.283 83.3511 87.541C82.5121 88.38 78.0581 87.993 77.0251 86.96C75.4111 85.411 75.7981 84.313 78.0581 83.861C79.2201 83.668 80.9631 82.699 81.9311 81.731C82.9001 80.763 83.7391 80.311 83.7391 80.634C83.7391 81.473 80.5111 84.442 78.8971 85.088C77.8641 85.54 78.1871 85.733 80.7051 86.314ZM106.398 87.347C108.27 86.314 107.882 85.604 105.687 85.927C103.493 86.25 103.364 85.992 104.784 83.797C105.365 82.958 105.687 81.731 105.558 81.085C105.365 80.246 104.913 80.634 103.88 82.699C103.105 84.184 102.008 85.411 101.491 85.411C99.8781 85.411 99.7481 86.702 101.298 87.283C103.299 88.122 104.848 88.122 106.398 87.347ZM84.0621 52.1C82.5121 52.358 77.6711 54.295 73.4101 56.425C69.0851 58.491 65.4051 60.234 65.1471 60.17C58.5621 59.46 67.7291 48.485 84.3841 37.253C100.329 26.472 111.11 20.791 121.116 17.886C127.378 16.078 134.415 15.82 136.416 17.305C137.513 18.144 137.126 18.209 132.349 18.273C122.02 18.273 110.077 23.567 90.6461 36.542C80.5761 43.256 68.8911 52.875 68.8911 54.424C68.8911 54.747 70.7631 54.101 73.0871 53.069C78.0581 50.809 83.1581 49.647 85.4171 50.164C87.8061 50.809 87.2891 51.648 84.0621 52.1ZM109.044 57.652C115.113 56.425 115.371 56.361 115.371 55.715C115.371 55.393 113.047 55.07 110.142 54.941L104.913 54.747L109.754 49.26C112.401 46.226 115.5 43.192 116.597 42.482C118.986 40.932 119.115 39.835 117.178 39.189L115.694 38.737L117.307 38.156C118.211 37.834 119.89 37.704 121.052 37.898C122.795 38.156 123.182 38.027 122.988 37.123C122.795 36.22 122.085 36.026 118.921 36.091C109.69 36.22 105.752 38.673 112.982 39.835C114.983 40.158 116.662 40.674 116.662 40.997C116.662 41.255 116.339 41.513 115.952 41.513C114.725 41.513 104.332 52.036 103.041 54.618C101.04 58.427 102.137 59.008 109.044 57.652ZM151.651 32.605C149.779 32.734 149.327 33.056 149.456 33.96L149.476 34.092C149.548 34.569 149.59 34.844 149.483 34.927C149.338 35.039 148.923 34.804 147.947 34.25L147.777 34.154C146.551 33.508 146.422 33.186 147.132 32.669C147.584 32.282 148.81 31.701 149.779 31.507L151.586 31.055L150.231 29.635C149.52 28.796 149.133 28.021 149.327 27.763C149.843 27.247 156.17 27.957 157.073 28.667C157.461 28.989 158.042 28.925 158.429 28.538C159.333 27.634 160.559 28.344 160.559 29.764C160.559 30.539 160.366 30.603 159.785 30.022C159.268 29.506 158.816 29.506 158.235 29.958C157.719 30.41 157.332 30.41 157.009 29.893C156.815 29.57 155.589 29.248 154.298 29.248C153.106 29.248 152.543 29.248 152.428 29.475C152.325 29.678 152.583 30.064 153.071 30.797C154.101 32.406 154.04 32.411 151.673 32.603L151.651 32.605ZM141.838 15.433C141.838 14.594 141.064 13.109 140.095 12.141L138.288 10.333L147.971 10.72C153.329 10.979 159.397 11.56 161.528 12.141C163.658 12.657 166.111 13.044 167.015 13.044C168.371 13.044 168.112 12.786 165.595 11.43C161.205 9.17099 155.589 8.07399 144.808 7.29899C131.897 6.39499 125.377 7.622 126.603 10.849C126.797 11.495 127.83 11.818 129.379 11.818C132.542 11.818 137.707 13.69 139.45 15.433C141.322 17.305 141.838 17.305 141.838 15.433ZM110.335 186.375C115.564 193.089 122.472 200.706 125.7 203.288C127.636 204.838 129.315 206.129 129.444 206.129C129.508 206.129 128.088 203.159 126.281 199.544C118.986 185.019 114.725 170.559 112.724 153.904C112.272 150.224 111.562 147.125 110.787 145.834C109.238 143.252 109.238 139.895 110.852 136.732C111.691 135.054 112.143 132.923 112.143 130.599V127.049L109.044 130.276C106.01 133.44 103.105 134.731 103.105 132.794C103.105 131.374 107.882 124.531 110.4 122.401C112.401 120.722 112.659 120.141 113.305 115.106C113.757 112.072 114.79 106.714 115.629 103.163C116.533 99.613 117.049 96.579 116.92 96.45C116.468 95.998 101.298 113.421 99.2321 118.979C98.7781 120.2 97.5541 122.336 96.5851 123.627L94.9071 125.782C94.9071 125.782 95.4281 128.8 96.0041 132.592C96.5861 136.424 96.8591 139.058 97.1031 141.404C97.4281 144.542 97.7001 147.165 98.5861 151.451C99.6191 156.744 100.652 161.327 100.91 161.65C101.104 162.038 101.943 165.007 102.783 168.299C104.59 175.594 107.624 182.824 110.335 186.375ZM372.3 247.444L370.945 246.088C370.945 246.088 393.445 217.501 397.477 206.968C400.553 198.93 402.364 196.65 404.807 196.65C406.174 196.65 407.289 196.962 407.805 197.737C408.709 199.092 409.58 200.771 408.418 206.516C406.482 215.812 403.512 221.945 394.603 235.179C392.538 238.213 389.891 241.57 388.729 242.732C386.018 245.249 379.918 247.831 376.367 248.412C374.108 248.735 373.462 248.606 372.3 247.444Z" fill="#00160A"/>
<path d="M551.053 310.597C559.085 288.715 557.869 284.053 556.476 283.597C556.476 283.597 553.409 285.34 552.053 289.019C549.536 295.927 540.918 314.002 537.691 317.23C533.882 321.039 533.882 321.039 530.008 321.039C526.135 321.039 514.964 315.206 513.443 309.456C511.01 300.256 521.487 268.297 521.745 266.49L520.002 265.263C518.84 266.361 503.726 312.195 483.852 300.252C481.576 298.884 476.75 292.441 476.363 289.019C474.212 279.078 484.082 244.315 485.76 237.175C487.263 230.783 495.084 224.852 504.703 224.852C519.486 224.852 517.5 237.774 524.122 242.327C527.056 244.345 531.879 240.687 533.365 240.409C541.693 238.86 544.884 240.664 550.989 245.509C555.701 249.249 559.188 256.651 563.026 259.259C565.158 260.708 567.42 258.728 568.161 258.356C571.198 256.831 577.715 257.968 579.522 259.259C582.172 260.415 588.666 266.657 589.691 270.287C594.341 286.741 579.66 323.219 574.117 330.062C564.943 341.389 543.022 332.479 551.053 310.597Z" fill="white"/>
<path fill-rule="evenodd" clip-rule="evenodd" d="M179.926 250.637C197.614 261.806 215.853 269.1 236.64 271.101C253.037 272.651 275.145 270.52 291.025 265.356C304.388 261.031 322.464 249.049 334.536 238.914C357.969 219.289 372.752 188.635 379.208 156.1C380.111 151.516 381.49 139.995 381.425 128.569C381.425 115.27 375.573 78.93 357.84 57.976C321.266 14.758 261.147 -4.71 210.621 11.925C192.394 17.925 172.988 28.797 158.334 42.999C139.871 61.01 126.25 85.541 120.828 110.588C115.147 137.056 122.537 168.688 135.383 194.639C145.647 215.297 162.561 239.599 179.926 250.637ZM352.288 172.626C340.152 209.099 308.52 236.342 268.754 244.605C262.686 245.831 258.49 246.283 249.968 246.412C243.965 246.606 237.961 246.541 236.735 246.412C208.911 243.055 187.737 232.791 168.242 213.295C159.72 204.71 156.105 200.062 150.812 190.895C142.484 176.37 138.03 161.522 136.674 143.64C132.026 82.378 175.859 31.314 237.574 26.021C261.782 23.955 288.637 31.379 309.036 45.839C316.589 51.197 330.275 64.754 334.536 71.08C336.279 73.598 353.192 98.323 356.162 112.525C359.97 130.988 358.486 154.098 352.288 172.626Z" fill="white"/>
<path fill-rule="evenodd" clip-rule="evenodd" d="M381.448 128.567C381.448 171.897 360.952 219.269 334.5 239.5C321.88 249.152 305.387 260.839 291.025 265.355C269.977 271.972 236.639 271.1 236.639 271.1C236.639 271.1 270.651 266.553 283.255 261.481C319.398 246.935 339.128 224.607 351.312 203.184C375.361 160.895 381.448 127.515 381.448 128.567Z" fill="#E7EAEE"/>
<path fill-rule="evenodd" clip-rule="evenodd" d="M237.38 238.665C220.144 236.47 203.037 230.337 189.222 221.235C181.024 215.877 168.629 203.289 162.625 194.316C154.04 181.405 148.359 167.59 145.583 152.742C143.582 141.961 143.646 125.371 145.647 115.752C147.713 105.94 150.36 98.451 155.072 88.962C160.56 77.987 166.37 69.918 175.084 61.203C189.932 46.355 207.168 36.93 227.697 32.411C234.346 30.991 258.425 29.829 259.264 30.927C259.458 31.249 260.749 32.089 262.105 32.799C263.46 33.573 267.076 36.285 270.045 38.931C274.499 42.805 276.501 45.258 280.374 51.326C283.021 55.458 285.151 59.202 285.151 59.525C285.151 60.235 287.217 61.526 288.379 61.526C289.993 61.526 291.09 56.684 291.413 48.163C291.606 43.45 291.994 39.577 292.252 39.577C293.156 39.577 303.097 45.064 307.745 48.163C316.848 54.231 325.95 62.752 332.664 71.661C335.698 75.663 336.15 76.696 336.15 79.149C336.15 81.409 336.795 83.152 338.796 86.638C343.832 95.417 347.769 106.456 350.158 118.657C351.707 126.856 351.707 142.349 350.093 150.935C345.704 174.562 332.664 198.06 315.686 212.972C301.29 225.56 285.99 233.307 267.915 237.116C261.717 238.471 243.126 239.375 237.38 238.665ZM191.223 194.509C191.804 193.864 192.192 192.895 191.998 192.444C191.94 192.308 191.131 191.928 189.948 191.372C187.19 190.075 182.395 187.821 180.317 185.472C172.054 176.047 169.02 169.01 167.148 154.485C165.34 140.348 166.859 130.79 170.117 115.429C171.707 107.936 175.932 101.746 178.56 97.896C180.348 95.277 181.397 93.74 180.378 93.61C177.86 93.222 177.473 93.416 174.826 95.934C169.145 101.356 166.563 105.681 163.852 114.009C159.656 127.049 158.845 162.29 167.148 178.177C175.451 194.064 189.738 196.188 191.223 194.509ZM283.021 140.283C281.924 150.311 277.275 164.814 271.853 171.14C269.335 174.11 260.093 179.21 252.292 178.177C244.757 177.179 238.865 173.658 233.83 166.105C229.504 159.585 227.271 151.671 225.76 141.703C223.152 124.491 234.54 104.455 239.446 99.484C244.417 94.384 247.967 92.577 252.486 92.512C256.876 92.512 259.716 93.481 264.171 96.644C272.305 102.325 285.151 120.796 283.021 140.283ZM196 86.896C197.291 85.411 197.485 84.701 197.098 81.925C196.84 79.343 196.323 78.31 194.967 77.213C192.579 75.276 189.609 75.276 187.415 77.342C185.865 78.827 185.672 79.343 185.865 82.893C186.059 86.702 186.188 86.96 188.318 88.122C191.159 89.672 193.935 89.22 196 86.896ZM236.283 47.065C224.663 55.393 219.628 58.814 214.399 62.042C210.267 64.624 208.976 64.689 208.976 62.365C208.976 61.138 209.88 59.783 212.204 57.652L215.431 54.683L209.17 53.844C202.133 52.94 195.29 51.003 193.805 49.518C191.352 47.001 193.483 46.42 200.455 47.711C203.553 48.227 209.557 48.873 213.818 49.002L221.564 49.325L227.18 45.258C239.51 36.349 252.292 31.314 258.425 32.863C262.234 33.767 261.782 34.8 257.457 35.316C252.486 35.897 249.452 37.576 236.283 47.065Z" fill="white"/>
<path d="M252.873 169.333C252.873 169.01 253.26 168.688 253.777 168.688C254.293 168.688 254.939 169.01 255.132 169.333C255.326 169.72 254.939 169.979 254.229 169.979C253.454 169.979 252.873 169.72 252.873 169.333Z" fill="white"/>
<path d="M256.747 168.75C256.747 168.04 258.36 167.395 260.168 167.395C261.588 167.459 261.588 167.459 260.362 168.363C258.941 169.46 256.747 169.654 256.747 168.75Z" fill="white"/>
<path d="M246.741 167.073C246.547 166.557 246.289 165.653 246.095 165.136C245.901 164.491 246.224 164.168 247.063 164.168C247.773 164.168 248.354 164.555 248.354 165.072C248.354 165.588 248.548 166.427 248.742 167.008C249 167.719 248.806 168.041 248.096 168.041C247.515 168.041 246.87 167.589 246.741 167.073Z" fill="white"/>
<path d="M250.162 165.457C249.839 163.521 250.549 162.875 252.873 162.875C253.583 162.875 254.164 163.521 254.423 164.618C254.939 166.49 254.1 167.394 251.84 167.394C250.807 167.394 250.356 166.942 250.162 165.457Z" fill="white"/>
<path d="M243.577 165.781C242.351 164.812 242.351 164.812 243.706 164.812C244.546 164.812 245.127 165.2 245.127 165.781C245.127 166.943 245.127 166.943 243.577 165.781Z" fill="white"/>
<path d="M256.553 165.715C255.714 164.876 256.101 162.359 257.134 161.971C259.006 161.261 259.845 161.584 260.233 163.262C260.491 164.231 260.62 165.07 260.491 165.134C259.974 165.715 256.94 166.103 256.553 165.715Z" fill="white"/>
<path d="M262.298 164.363C262.105 164.17 261.911 163.331 261.911 162.556C261.911 161.458 262.428 161.007 263.977 160.684C265.333 160.426 266.172 160.555 266.559 161.071C267.205 162.104 267.205 163.395 266.624 163.718C265.462 164.363 262.75 164.751 262.298 164.363Z" fill="white"/>
<path d="M240.608 162.361C240.608 161.586 241.189 160.941 242.028 160.747C243.707 160.295 243.642 160.23 243.965 161.909C244.094 162.877 243.771 163.265 242.415 163.394C240.995 163.587 240.608 163.329 240.608 162.361Z" fill="white"/>
<path d="M245.514 162.424C244.61 161.456 245.191 159.648 246.417 159.648C247.257 159.648 247.709 160.1 247.709 160.875C247.709 162.102 246.224 163.134 245.514 162.424Z" fill="white"/>
<path d="M249.387 160.49C248.871 159.263 249.968 158.359 252.098 158.359C253.067 158.359 253.519 158.747 253.519 159.586C253.519 160.296 252.938 160.942 252.098 161.2C249.968 161.716 249.839 161.716 249.387 160.49Z" fill="white"/>
<path d="M268.044 160.294C268.237 159.971 268.56 159.648 268.754 159.648C268.948 159.648 268.883 159.971 268.689 160.294C268.496 160.681 268.173 160.94 267.979 160.94C267.786 160.94 267.85 160.681 268.044 160.294Z" fill="white"/>
<path d="M255.197 159.197C254.681 157.906 255.326 157.26 257.392 156.937C258.554 156.808 259.071 157.067 259.2 157.97C259.652 160.101 255.972 161.263 255.197 159.197Z" fill="white"/>
<path d="M239.704 158.101C239.123 155.971 239.252 155.777 240.931 155.777C241.834 155.777 242.544 156.036 242.544 156.358C242.544 156.681 242.738 157.391 242.932 157.908C243.125 158.553 242.738 158.941 241.641 159.134C240.414 159.392 239.962 159.134 239.704 158.101Z" fill="white"/>
<path d="M261.265 157.389C261.265 156.227 261.717 155.71 262.944 155.387C264.751 154.935 265.784 155.839 265.784 157.905C265.784 158.744 265.268 159.002 263.525 159.002C261.523 159.002 261.265 158.809 261.265 157.389Z" fill="white"/>
<path d="M237.767 157.39C237.574 156.874 237.703 156.422 238.025 156.422C238.413 156.422 238.671 156.874 238.671 157.39C238.671 157.907 238.542 158.359 238.413 158.359C238.284 158.359 238.025 157.907 237.767 157.39Z" fill="white"/>
<path d="M244.287 157.907C243.384 157.068 243.9 155.26 245.062 154.937C245.772 154.744 246.482 154.808 246.676 155.002C247.451 155.712 246.999 157.584 246.03 157.971C244.804 158.423 244.804 158.423 244.287 157.907Z" fill="white"/>
<path d="M267.334 157.456C266.623 155.583 267.398 154.163 269.206 153.97C270.561 153.776 270.949 154.034 270.949 155.067C270.949 157.197 270.239 158.359 268.947 158.359C268.237 158.359 267.527 157.972 267.334 157.456Z" fill="white"/>
<path d="M248.806 156.615C248.032 155.905 248.29 154.614 249.387 154.227C250.614 153.775 253.196 155.066 252.486 155.776C251.582 156.551 249.258 157.132 248.806 156.615Z" fill="white"/>
<path d="M254.422 155C253.841 154.096 255.907 152.547 257.586 152.547C258.36 152.547 258.683 152.934 258.554 153.644C258.296 154.935 255.003 155.968 254.422 155Z" fill="white"/>
<path d="M236.734 154.549C236.734 154.226 236.541 153.516 236.347 152.935C236.153 152.354 236.218 151.902 236.605 151.902C237.444 151.902 238.09 154.355 237.315 154.872C236.993 155.066 236.734 154.936 236.734 154.549Z" fill="white"/>
<path d="M238.477 153.066C238.09 151.646 238.865 150.613 240.35 150.613C241.189 150.613 242.028 153.131 241.512 153.97C240.801 155.068 238.8 154.422 238.477 153.066Z" fill="white"/>
<path d="M242.996 153.386C242.028 152.418 242.609 150.094 243.9 149.771C244.868 149.513 245.385 149.835 245.901 150.997C246.288 151.837 246.482 152.676 246.353 152.805C245.707 153.386 243.383 153.838 242.996 153.386Z" fill="white"/>
<path d="M260.426 153.388C259.587 152.549 259.974 152.032 261.911 151.322C263.525 150.806 263.977 150.87 264.3 151.645C264.881 153.194 261.653 154.679 260.426 153.388Z" fill="white"/>
<path d="M266.107 151.901C265.461 150.869 266.365 149.965 268.043 149.965C270.045 149.965 270.626 151.643 268.818 152.16C266.881 152.676 266.559 152.612 266.107 151.901Z" fill="white"/>
<path d="M271.594 150.353C271.594 149.385 272.756 148.352 273.273 148.868C273.725 149.32 272.821 151.257 272.175 151.257C271.852 151.257 271.594 150.869 271.594 150.353Z" fill="white"/>
<path d="M235.895 149.515C235.637 149.321 235.443 148.482 235.508 147.772C235.508 146.545 235.572 146.545 236.153 147.966C236.799 149.515 236.67 150.29 235.895 149.515Z" fill="white"/>
<path d="M237.122 148.547C236.541 146.287 236.605 146.094 238.284 146.094C240.156 146.094 241.318 148.482 239.898 149.386C238.413 150.29 237.574 150.032 237.122 148.547Z" fill="white"/>
<path d="M259.329 149.837C259.329 149.644 259.651 148.611 260.039 147.449C260.942 144.866 262.944 144.737 263.396 147.255C263.589 148.223 263.654 149.063 263.589 149.127C263.266 149.514 259.329 150.095 259.329 149.837Z" fill="white"/>
<path d="M241.705 148.225C241.447 148.031 241.253 147.256 241.253 146.546C241.253 145.513 241.447 145.449 242.222 146.094C242.738 146.546 243.19 147.321 243.19 147.773C243.19 148.741 242.415 148.999 241.705 148.225Z" fill="white"/>
<path d="M264.945 146.932C264.558 144.931 265.397 144.027 267.398 144.285C268.366 144.414 268.689 144.995 268.689 146.416C268.689 148.03 268.431 148.417 267.011 148.546C265.591 148.74 265.268 148.417 264.945 146.932Z" fill="white"/>
<path d="M271.271 147.19C270.432 144.607 270.69 143.833 272.433 143.639C273.982 143.445 274.176 143.639 274.176 145.318C274.176 146.738 273.789 147.319 272.82 147.577C272.11 147.771 271.4 147.577 271.271 147.19Z" fill="white"/>
<path d="M234.927 143.51C234.927 142.283 235.056 141.767 235.25 142.412C235.379 142.993 235.379 144.026 235.25 144.672C235.056 145.253 234.927 144.736 234.927 143.51Z" fill="white"/>
<path d="M236.541 144.351C235.702 143.576 236.089 141.059 237.122 140.671C238.607 140.09 239.317 140.8 239.317 142.931C239.317 144.286 238.994 144.803 238.155 144.803C237.509 144.803 236.734 144.609 236.541 144.351Z" fill="white"/>
<path d="M240.414 142.606C240.156 141.638 240.027 140.605 240.285 140.411C240.93 139.766 241.318 140.799 241.124 142.671L240.93 144.478L240.414 142.606Z" fill="white"/>
<path d="M261.265 142.157C261.265 141.446 261.588 141.059 261.911 141.253C262.298 141.446 262.556 142.092 262.556 142.608C262.556 143.125 262.298 143.512 261.911 143.512C261.588 143.512 261.265 142.931 261.265 142.157Z" fill="white"/>
<path d="M264.17 142.996C263.267 142.027 263.977 140.284 265.461 139.897C267.334 139.445 267.398 139.445 267.979 141.317C268.366 142.479 268.108 142.738 266.43 142.996C265.397 143.189 264.364 143.125 264.17 142.996Z" fill="white"/>
<path d="M270.109 141.768C269.399 141.122 269.593 138.992 270.303 138.992C270.69 138.992 270.948 138.734 270.948 138.346C270.948 138.024 270.561 137.701 270.045 137.701C268.947 137.701 268.044 134.538 268.947 133.634C270.109 132.472 271.4 133.698 272.175 136.862C272.627 138.54 273.079 140.477 273.272 141.122C273.531 141.961 273.272 142.22 272.046 142.22C271.207 142.22 270.303 142.026 270.109 141.768Z" fill="white"/>
<path d="M273.595 138.348C273.144 136.411 271.982 132.538 271.142 129.697C269.851 125.566 269.722 124.533 270.432 124.081C270.884 123.758 271.465 123.5 271.659 123.5C272.369 123.5 274.951 136.734 274.693 139.316L274.499 141.898L273.595 138.348Z" fill="white"/>
<path d="M234.281 138.024C234.281 136.991 234.41 136.604 234.604 137.249C234.733 137.83 234.733 138.734 234.604 139.186C234.41 139.573 234.281 139.121 234.281 138.024Z" fill="white"/>
<path d="M235.572 137.892C235.831 135.633 237.703 135.116 238.219 137.182C238.671 138.86 238.8 138.667 236.863 139.312C235.508 139.7 235.379 139.571 235.572 137.892Z" fill="white"/>
<path d="M262.815 137.311C262.298 135.439 263.396 134.342 265.461 134.6C267.011 134.794 267.592 137.569 266.301 138.409C264.687 139.442 263.202 138.99 262.815 137.311Z" fill="white"/>
<path d="M239.316 136.796C239.316 135.698 239.639 135.117 240.349 135.117C240.995 135.117 241.253 135.569 241.124 136.537C240.801 138.603 239.316 138.797 239.316 136.796Z" fill="white"/>
<path d="M233.571 134.085C233.571 133.375 233.765 133.182 233.959 133.698C234.152 134.15 234.088 134.731 233.894 134.925C233.7 135.183 233.507 134.795 233.571 134.085Z" fill="white"/>
<path d="M234.798 133.891C234.798 132.922 235.185 132.535 236.154 132.535C237.057 132.535 237.38 132.858 237.251 133.633C236.928 135.311 234.798 135.505 234.798 133.891Z" fill="white"/>
<path d="M238.348 133.311C237.897 132.149 237.897 132.149 239.833 131.632C240.995 131.245 241.253 131.439 241.253 132.407C241.253 133.956 238.929 134.731 238.348 133.311Z" fill="white"/>
<path d="M261.717 132.406C261.265 130.792 262.104 129.953 264.364 129.953C265.461 129.953 265.784 130.34 265.784 131.567C265.784 132.535 265.397 133.181 264.88 133.181C264.364 133.181 263.525 133.375 263.008 133.568C262.427 133.762 261.975 133.375 261.717 132.406Z" fill="white"/>
<path d="M267.334 130.923C266.817 129.632 267.592 128.664 269.077 128.664C269.981 128.664 270.303 129.116 270.303 130.278C270.303 131.44 269.981 131.892 269.012 131.892C268.302 131.892 267.527 131.44 267.334 130.923Z" fill="white"/>
<path d="M234.152 130.018C234.152 128.662 235.637 127.113 236.283 127.823C236.541 128.017 236.735 128.92 236.735 129.76C236.735 130.792 236.347 131.244 235.443 131.244C234.604 131.244 234.152 130.792 234.152 130.018Z" fill="white"/>
<path d="M237.703 129.242C237.186 127.629 237.767 126.918 239.962 126.596C241.964 126.337 242.609 128.468 240.866 129.759C239.188 130.985 238.155 130.792 237.703 129.242Z" fill="white"/>
<path d="M261.072 128.857C260.62 128.47 260.426 126.081 260.814 126.081C260.878 126.081 261.847 125.823 263.009 125.5C264.945 124.919 265.074 124.984 265.01 126.727C264.945 128.018 264.558 128.664 263.59 128.922C261.847 129.374 261.588 129.374 261.072 128.857Z" fill="white"/>
<path d="M258.683 127.37C258.683 126.919 258.877 126.725 259.135 126.919C259.329 127.177 259.329 127.564 259.135 127.822C258.877 128.016 258.683 127.822 258.683 127.37Z" fill="white"/>
<path d="M265.913 126.337C266.107 125.24 268.108 123.626 268.56 124.142C268.754 124.336 269.076 125.111 269.27 125.95C269.722 127.241 269.528 127.37 267.721 127.37C266.171 127.37 265.72 127.112 265.913 126.337Z" fill="white"/>
<path d="M234.798 126.274C234.798 125.951 235.121 125.306 235.443 124.789C235.96 124.015 236.089 124.079 236.089 125.306C236.089 126.081 235.831 126.726 235.443 126.726C235.121 126.726 234.798 126.532 234.798 126.274Z" fill="white"/>
<path d="M236.734 124.853C236.734 123.045 238.09 122.464 239.123 123.82C239.768 124.788 239.768 125.111 239.123 125.563C237.767 126.402 236.734 126.144 236.734 124.853Z" fill="white"/>
<path d="M256.359 124.016C255.197 122.725 255.197 122.661 256.295 123.048C256.94 123.306 257.779 123.5 258.102 123.5C258.425 123.5 258.683 123.952 258.683 124.468C258.683 125.824 257.779 125.695 256.359 124.016Z" fill="white"/>
<path d="M242.48 123.95C239.704 121.82 239.317 117.043 241.899 117.043C243.642 117.043 245.256 119.754 244.997 122.272C244.804 124.596 244.029 125.112 242.48 123.95Z" fill="white"/>
<path d="M260.168 124.337C260.426 124.143 260.814 124.143 261.072 124.337C261.265 124.595 261.072 124.789 260.62 124.789C260.168 124.789 259.974 124.595 260.168 124.337Z" fill="white"/>
<path d="M269.916 121.819C270.11 121.238 270.303 120.657 270.303 120.528C270.303 120.399 270.626 120.27 270.949 120.27C271.336 120.27 271.594 120.851 271.594 121.561C271.594 122.335 271.142 122.852 270.561 122.852C269.851 122.852 269.658 122.529 269.916 121.819Z" fill="white"/>
<path d="M236.089 121.625C236.089 120.141 237.445 117.688 238.219 117.688C239.575 117.688 238.607 121.819 237.186 122.077C236.605 122.206 236.089 122.013 236.089 121.625Z" fill="white"/>
<path d="M250.614 120.915L248.677 120.463L250.42 120.011C252.228 119.495 253.519 119.882 253.519 120.98C253.519 121.625 253.454 121.625 250.614 120.915Z" fill="white"/>
<path d="M248.354 117.816C248.354 115.169 249.839 114.782 251.195 117.106C252.099 118.655 252.163 118.978 251.324 118.978C250.808 118.978 249.968 119.172 249.387 119.365C248.613 119.688 248.354 119.301 248.354 117.816Z" fill="white"/>
<path d="M259.587 118.72C256.682 117.429 254.81 114.008 254.81 109.941C254.81 107.036 255.068 106.326 256.811 104.712C257.909 103.679 259.006 102.84 259.329 102.84C260.749 102.84 265.978 107.811 267.721 110.909L269.722 114.46L267.592 116.719C265.139 119.301 262.428 120.012 259.587 118.72Z" fill="white"/>
<path d="M246.095 117.044C245.901 116.721 246.03 116.398 246.353 116.398C246.74 116.398 247.063 116.721 247.063 117.044C247.063 117.431 246.934 117.69 246.805 117.69C246.611 117.69 246.289 117.431 246.095 117.044Z" fill="white"/>
<path d="M237.638 116.01C237.832 115.429 238.025 114.848 238.025 114.719C238.025 114.59 238.606 114.461 239.316 114.461C240.93 114.461 240.995 115.494 239.381 116.398C237.638 117.301 237.186 117.237 237.638 116.01Z" fill="white"/>
<path d="M242.738 115.235C241.253 115.042 240.801 114.203 241.77 113.622C242.028 113.428 243.19 113.105 244.352 112.847C246.095 112.46 246.417 112.589 246.417 113.686C246.417 115.042 245.062 115.623 242.738 115.235Z" fill="white"/>
<path d="M247.709 113.041C247.709 112.267 247.774 111.815 247.903 111.944C247.967 112.073 248.484 112.718 248.936 113.364C249.71 114.268 249.646 114.461 248.742 114.461C248.096 114.461 247.709 113.945 247.709 113.041Z" fill="white"/>
<path d="M238.671 112.589C238.671 112.202 238.994 111.75 239.316 111.556C239.704 111.363 239.962 111.621 239.962 112.137C239.962 112.718 239.704 113.17 239.316 113.17C238.994 113.17 238.671 112.912 238.671 112.589Z" fill="white"/>
<path d="M241.06 111.618C240.543 110.327 245.126 108.907 245.901 110.133C246.482 111.166 245.901 111.618 243.448 112.135C241.963 112.457 241.318 112.328 241.06 111.618Z" fill="white"/>
<path d="M247.128 109.554C247.128 108.844 247.322 108.65 247.515 109.167C247.709 109.619 247.644 110.2 247.451 110.393C247.257 110.652 247.063 110.264 247.128 109.554Z" fill="white"/>
<path d="M241.641 108.522C242.415 107.101 244.675 104.777 245.256 104.777C245.901 104.777 245.966 107.811 245.32 108.199C244.997 108.328 243.965 108.651 242.996 108.909C241.576 109.232 241.253 109.167 241.641 108.522Z" fill="white"/>
<path d="M246.805 107.036C246.095 105.1 246.418 104.26 247.967 104.002C249.581 103.679 249.581 103.679 248.548 105.681C247.257 108.263 247.321 108.263 246.805 107.036Z" fill="white"/>
<path d="M246.417 103.164C246.417 103.034 247.709 102.131 249.322 101.227C251.259 100.065 252.615 99.678 253.583 99.936C254.745 100.323 254.422 100.581 251.582 101.937C248.419 103.357 246.417 103.874 246.417 103.164Z" fill="white"/>
<path d="M282.246 45.969C280.503 43.451 276.823 39.384 274.176 36.931C271.53 34.478 269.787 32.477 270.303 32.477C271.723 32.477 282.569 35.446 285.28 36.608C287.539 37.576 287.604 37.706 287.023 39.707C286.7 40.869 286.442 43.774 286.442 46.162C286.442 48.615 286.248 50.552 285.99 50.552C285.667 50.552 284.053 48.486 282.246 45.969Z" fill="white"/>
<path d="M150.876 241.504C148.229 240.149 147.648 239.374 144.291 232.725C139.45 223.3 139.321 221.105 143.904 226.463C145.711 228.593 149.908 232.983 153.2 236.211C158.816 241.633 159.074 242.021 157.202 241.763C155.847 241.569 155.33 241.698 155.653 242.214C156.428 243.376 153.975 243.054 150.876 241.504Z" fill="white"/>
<path fill-rule="evenodd" clip-rule="evenodd" d="M259.063 359.12C258.527 357.847 259.124 356.382 260.397 355.846L261.788 355.256C275.31 349.47 283.072 345.994 288.346 340.475C293.619 334.956 294.25 326.85 295.241 321.917C295.513 320.564 298.578 322.941 299.932 323.213C301.286 323.485 302.163 324.803 301.891 326.157C300.699 332.087 297.491 337.741 292.327 343.108C287.18 348.457 277.214 354.191 262.337 360.454C261.064 360.99 259.599 360.392 259.063 359.12Z" fill="#00160A"/>
<path fill-rule="evenodd" clip-rule="evenodd" d="M320.213 101.544C321.4 100.837 322.934 101.227 323.64 102.413C330.712 114.292 334.5 127.872 334.5 142C334.5 184.802 299.802 219.5 257 219.5C245.626 219.5 234.595 217.047 224.494 212.373C223.241 211.793 218.507 207.177 223.274 209.054C228.042 210.932 246.488 215.146 257.133 215.146C297.173 215.146 325.5 182.04 325.5 142C325.5 128.778 320.213 117.043 319.344 104.971C319.243 103.571 319.027 102.25 320.213 101.544Z" fill="#00160A"/>
<path fill-rule="evenodd" clip-rule="evenodd" d="M72.6191 290.756C73.5021 289.695 75.0791 287.552 76.1401 288.435C80.4921 292.06 85.1361 296.26 90.1041 297.071C95.2741 297.915 101.407 297.915 108.495 297.056C109.866 296.891 111.111 297.867 111.277 299.238C111.443 300.609 110.466 301.854 109.096 302.02C101.568 302.931 94.9721 302.931 89.2991 302.006C83.4241 301.047 77.9601 298.459 72.9401 294.277C71.8791 293.393 71.7351 291.817 72.6191 290.756Z" fill="#00160A"/>
<path d="M125.7 203.289C122.472 200.707 115.564 193.089 110.335 186.375C107.624 182.825 104.59 175.595 102.782 168.3C101.943 165.008 101.104 162.038 100.91 161.651C100.652 161.328 99.619 156.745 98.586 151.451C97.037 143.963 97.365 141.55 96.004 132.593C95.428 128.8 94.907 125.783 94.907 125.783L96.585 123.628C97.553 122.337 98.778 120.2 99.232 118.98C101.298 113.421 116.468 95.998 116.92 96.45C117.049 96.579 116.533 99.613 115.629 103.164C114.79 106.714 113.757 112.072 113.305 115.106C112.659 120.142 112.401 120.723 110.4 122.401C107.882 124.532 103.105 131.374 103.105 132.795C103.105 134.731 106.01 133.44 109.044 130.277L112.143 127.049V130.6C112.143 132.924 111.691 135.054 110.852 136.732C109.238 139.896 109.238 143.253 110.787 145.835C111.562 147.126 112.272 150.224 112.724 153.904C114.725 170.559 118.986 185.02 126.281 199.545C128.088 203.16 129.508 206.129 129.444 206.129C129.315 206.129 127.636 204.838 125.7 203.289Z" fill="white"/>
<path fill-rule="evenodd" clip-rule="evenodd" d="M394.313 243.12L398.961 245.186C399.925 245.63 410.558 250.739 423.329 256.876C443.92 266.77 470.071 279.335 470.23 279.335C470.489 279.335 471.7 276.534 471.973 273.267C472.619 266.231 475.007 256.676 477.783 250.027C479.074 247.058 480.107 243.346 480.107 243.024C480.107 242.876 479.058 242.453 477.34 241.76C475.294 240.935 472.302 239.728 469.004 238.149C452.736 230.338 420.91 214.393 416.972 212.004C413.099 209.745 412.324 209.551 412.324 211.036C412.324 212.973 408.386 221.946 405.352 226.787C403.739 229.434 400.575 234.211 398.316 237.374L394.313 243.12ZM469.133 267.715C470.984 268.788 467.777 270.362 467.003 270.62C462.441 271.008 457.071 270.15 452.671 267.586C450.371 265.955 432.256 255.891 420.24 249.215C414.747 246.164 410.528 243.82 409.678 243.313C406.966 241.7 404.384 239.957 403.932 239.44C402.577 237.697 403.868 236.923 407.676 237.245C409.966 237.439 465.134 265.398 469.133 267.715Z" fill="white"/>
<path d="M347.963 248.93C346.285 248.349 344.477 247.057 343.315 245.573L341.378 243.184L348.221 236.406C358.744 226.077 366.49 214.789 373.462 202.201C375.786 198.005 382.694 181.082 383.533 179.21C384.824 176.499 385.792 175.466 388.568 173.916C391.861 171.98 395.605 171.334 397.219 172.432C400.317 174.497 400.317 181.018 397.219 192.25C393.797 204.58 389.214 213.424 379.724 226.142C378.239 228.078 375.464 231.887 373.462 234.534C368.104 241.635 364.618 245.056 359.906 247.703C355.258 250.285 352.546 250.608 347.963 248.93Z" fill="white"/>
<path d="M372.3 247.442L370.944 246.087C370.944 246.087 393.445 217.5 397.476 206.966C400.553 198.928 402.364 196.648 404.807 196.648C406.173 196.648 407.289 196.96 407.805 197.735C408.709 199.091 409.58 200.769 408.418 206.514C406.481 215.81 403.512 221.943 394.603 235.177C392.537 238.211 389.891 241.568 388.729 242.73C386.017 245.248 379.917 247.83 376.367 248.411C374.108 248.734 373.462 248.604 372.3 247.442Z" fill="white"/>
<path fill-rule="evenodd" clip-rule="evenodd" d="M410.094 217.552C411.396 214.574 412.324 211.976 412.324 211.036C412.324 209.551 413.099 209.745 416.972 212.004C420.91 214.393 452.736 230.338 469.004 238.149C475.072 241.054 480.107 242.701 480.107 243.024C480.107 243.346 408.714 220.71 410.094 217.552Z" fill="#E7EAEE"/>
<path fill-rule="evenodd" clip-rule="evenodd" d="M189.222 221.233C181.023 215.875 168.628 203.287 162.625 194.313C154.039 181.402 148.358 167.588 145.582 152.74C143.581 141.959 143.646 125.369 145.647 115.75C147.713 105.937 150.359 98.449 155.072 88.959C160.559 77.985 166.369 69.916 175.084 61.201C183.63 52.655 145.647 87.997 155.072 151.231C162.625 204.221 195.085 225.096 189.222 221.233Z" fill="#E7EAEE"/>
</svg>
